/* XPM */
static char *result[] = {
/* columns rows colors chars-per-pixel */
"64 100 229 2 ",
"   c #1C021F",
".  c #17021F",
"X  c #2D000D",
"o  c #330006",
"O  c #3B0006",
"+  c #33000B",
"@  c #3B010A",
"#  c #3F0B0F",
"$  c #250216",
"%  c #2B0113",
"&  c #240219",
"*  c #2E061C",
"=  c #330214",
"-  c #3B0213",
";  c #34091C",
":  c #3A0B19",
">  c #35071A",
",  c #3C101F",
"<  c #110120",
"1  c #1E0621",
"2  c #1F0A23",
"3  c #200823",
"4  c #2C0E23",
"5  c #320D21",
"6  c #351325",
"7  c #3B1725",
"8  c #391828",
"9  c #2B1024",
"0  c #3E202D",
"q  c #440006",
"w  c #4C0006",
"e  c #44010C",
"r  c #4B010C",
"t  c #440C0E",
"y  c #530106",
"u  c #5B0106",
"i  c #53020B",
"p  c #5C030A",
"a  c #5E0A0F",
"s  c #440D13",
"d  c #4D0B1B",
"f  c #480814",
"g  c #570A12",
"h  c #4C111A",
"j  c #581617",
"k  c #630206",
"l  c #630409",
"z  c #68080C",
"x  c #660E14",
"c  c #730E11",
"v  c #6A1717",
"b  c #7C1A1C",
"n  c #741617",
"m  c #772214",
"M  c #6C241F",
"N  c #471C25",
"B  c #541C22",
"V  c #551B21",
"C  c #4C2228",
"Z  c #542529",
"A  c #57282A",
"S  c #5A2B2D",
"D  c #5A2625",
"F  c #5D3435",
"G  c #5C2F30",
"H  c #652B27",
"J  c #752925",
"K  c #68332D",
"L  c #743A2E",
"P  c #76352B",
"I  c #743D31",
"U  c #793D31",
"Y  c #673834",
"T  c #68231F",
"R  c #7B473A",
"E  c #7C4436",
"W  c #7A4C40",
"Q  c #831818",
"!  c #971E19",
"~  c #89291B",
"^  c #98261C",
"/  c #963619",
"(  c #8F2C10",
")  c #A63A12",
"_  c #8C2C2A",
"`  c #852624",
"'  c #8B332B",
"]  c #963528",
"[  c #943B34",
"{  c #8E3830",
"}  c #A63A2A",
"|  c #821F20",
" . c #CA392A",
".. c #DC3D29",
"X. c #E03B28",
"o. c #AE471C",
"O. c #98462A",
"+. c #8B4B34",
"@. c #854836",
"#. c #994839",
"$. c #985539",
"%. c #874A35",
"&. c #A8432A",
"*. c #A84B36",
"=. c #A75A38",
"-. c #B6563A",
";. c #B4522D",
":. c #AA623D",
">. c #B8693D",
",. c #C8422F",
"<. c #DD432E",
"1. c #CB4533",
"2. c #DA4A35",
"3. c #C45439",
"4. c #CA543B",
"5. c #DA563D",
"6. c #C15C28",
"7. c #EB543E",
"8. c #E04630",
"9. c #C86C37",
"0. c #995846",
"q. c #865442",
"w. c #A55A47",
"e. c #B15741",
"r. c #96644B",
"t. c #99644B",
"y. c #A96748",
"u. c #B76945",
"i. c #BC744A",
"p. c #BB7549",
"a. c #B37651",
"s. c #BA7A57",
"d. c #AE6E53",
"f. c #B47D65",
"g. c #C45D40",
"h. c #DC5C43",
"j. c #D45B44",
"k. c #EB5B44",
"l. c #C46748",
"z. c #D5634A",
"x. c #DA654A",
"c. c #D9684B",
"v. c #C37B4D",
"b. c #C27649",
"n. c #C67A55",
"m. c #DB7354",
"M. c #DC7B5B",
"N. c #D87859",
"B. c #D96D51",
"V. c #ED644C",
"C. c #E4674E",
"Z. c #EA6D53",
"A. c #E9755A",
"S. c #F0775D",
"D. c #EC7C61",
"F. c #F07B62",
"G. c #BE8157",
"H. c #AF8361",
"J. c #B78561",
"K. c #C58153",
"L. c #CC8C5D",
"P. c #C78759",
"I. c #D8845E",
"U. c #C98654",
"Y. c #C78963",
"T. c #DC8562",
"R. c #DA8C66",
"E. c #CE9364",
"W. c #CD956A",
"Q. c #D29465",
"!. c #D4956A",
"~. c #DC926C",
"^. c #D29B6C",
"/. c #D9986D",
"(. c #DA9A73",
"). c #C99A76",
"_. c #E68C6C",
"`. c #E98669",
"'. c #F1866B",
"]. c #E49473",
"[. c #EA9475",
"{. c #E79B7A",
"}. c #F39579",
"|. c #EE8E71",
" X c #CBA174",
".X c #D5A374",
"XX c #D6A678",
"oX c #DEA47C",
"OX c #D7AA7B",
"+X c #DAAB7D",
"@X c #DAA175",
"#X c #E3A37E",
"$X c #F49D81",
"%X c #DDAD82",
"&X c #DBB284",
"*X c #DDB58A",
"=X c #DDB98D",
"-X c #D7B186",
";X c #DEBD92",
":X c #DABE99",
">X c #E4A682",
",X c #E2AB84",
"<X c #E5AE8A",
"1X c #EAAA88",
"2X c #F4A689",
"3X c #E3B38C",
"4X c #E5B58F",
"5X c #E3BB94",
"6X c #E8BA95",
"7X c #F5B697",
"8X c #F4AF90",
"9X c #C59E80",
"0X c #DFC094",
"qX c #E0C196",
"wX c #E3C49A",
"eX c #E3C89F",
"rX c #F1C09D",
"tX c #E4CBA3",
"yX c #E9CAA5",
"uX c #F5C8A6",
"iX c #E6D2AA",
"pX c #EAD2AC",
"aX c #ECDAB3",
"sX c #F4D9B5",
"dX c #F7D1AF",
"fX c #F4E3BD",
"gX c #F8EBC5",
"hX c #F9F1CB",
"jX c None",
/* pixels */
"jXjXjXjXjXjXjXjXjXjXjXjXjXjXjXjXjXjXjXjXjXjXjXjX< < < < < < < < < < < < < < < < jXjXjXjXjXjXjXjXjXjXjXjXjXjXjXjXjXjXjXjXjXjXjXjX",
"jXjXjXjXjXjXjXjXjXjXjXjXjXjXjXjXjXjXjXjXjXjXjXjX< < < < < < < < < < < < < < < < jXjXjXjXjXjXjXjXjXjXjXjXjXjXjXjXjXjXjXjXjXjXjXjX",
"jXjXjXjXjXjXjXjXjXjXjXjXjXjXjXjXjXjXjXjXjXjXjXjX< < < < < < < < < < < < < < < < jXjXjXjXjXjXjXjXjXjXjXjXjXjXjXjXjXjXjXjXjXjXjXjX",
"jXjXjXjXjXjXjXjXjXjXjXjXjXjXjXjXjXjXjXjXjXjXjXjX< 1 . 1 2 2 2 $ & 2 2 2 1 . . < jXjXjXjXjXjXjXjXjXjXjXjXjXjXjXjXjXjXjXjXjXjXjXjX",
"jXjXjXjXjXjXjXjXjXjXjXjXjXjXjXjXjXjXjXjXjXjXjXjX4 ; , : 7 7 N N N N N 7 # 6 9 9 jXjXjXjXjXjXjXjXjXjXjXjXjXjXjXjXjXjXjXjXjXjXjXjX",
"jXjXjXjXjXjXjXjXjXjXjXjXjXjXjXjXjXjXjXjXjXjXjXjX7 s h h D D H K K H D D V s s # jXjXjXjXjXjXjXjXjXjXjXjXjXjXjXjXjXjXjXjXjXjXjXjX",
"jXjXjXjXjXjXjXjXjXjXjXjXjXjXjXjXjXjXjXjXjXjX* ; s h v M J E %.E %.U L m m T V s ; * jXjXjXjXjXjXjXjXjXjXjXjXjXjXjXjXjXjXjXjXjXjX",
"jXjXjXjXjXjXjXjXjXjXjXjXjXjXjXjXjXjXjXjXjXjX* : h v m / / O.o.=.=.;.+./ ( m v h : * jXjXjXjXjXjXjXjXjXjXjXjXjXjXjXjXjXjXjXjXjXjX",
"jXjXjXjXjXjXjXjXjXjXjXjXjXjXjXjXjXjXjXjX<   & : g m ( ) o.;.9.9.9.9.6.o.) ( m j # & . < jXjXjXjXjXjXjXjXjXjXjXjXjXjXjXjXjXjXjXjX",
"jXjXjXjXjXjXjXjXjXjXjXjXjXjXjXjXjXjXjXjX< . * : j m ( o.o.6.9.9.9.9.6.o.) ( m j # & . < jXjXjXjXjXjXjXjXjXjXjXjXjXjXjXjXjXjXjXjX",
"jXjXjXjXjXjXjXjXjXjXjXjXjXjXjXjXjXjXjXjX< . & : j m ( ( o.;.>.9.>.>.6.) ( ( m j , & . < jXjXjXjXjXjXjXjXjXjXjXjXjXjXjXjXjXjXjXjX",
"jXjXjXjXjXjXjXjXjXjXjXjXjXjXjXjXjXjXjXjX<   & : j m m ( / o.=.;.6.;.o./ ( m m j : * . < jXjXjXjXjXjXjXjXjXjXjXjXjXjXjXjXjXjXjXjX",
"jXjXjXjXjXjXjXjXjXjXjXjXjXjXjXjXjXjXjXjXjXjX& > t x v m m ] &.&.o./ / ~ m v x h : & jXjXjXjXjXjXjXjXjXjXjXjXjXjXjXjXjXjXjXjXjXjX",
"jXjXjXjXjXjXjXjXjXjXjXjXjXjXjXjXjXjXjXjXjXjX$ > t t g a v b ( / / ~ m v j j d s , * jXjXjXjXjXjXjXjXjXjXjXjXjXjXjXjXjXjXjXjXjXjX",
"jXjXjXjXjXjXjXjXjXjXjXjXjXjXjXjXjXjXjXjXjXjXjXjX: - # s d x n n v m a g t # : > jXjXjXjXjXjXjXjXjXjXjXjXjXjXjXjXjXjXjXjXjXjXjXjX",
"jXjXjXjXjXjXjXjXjXjXjXjXjXjXjXjXjXjXjXjXjXjXjXjX% % * = e i a x a a i t # % * = jXjXjXjXjXjXjXjXjXjXjXjXjXjXjXjXjXjXjXjXjXjXjXjX",
"jXjXjXjXjXjXjXjXjXjXjXjXjXjXjXjXjXjXjXjXjXjXjXjX$ $ $ % - e g l l p r - = % % * jXjXjXjXjXjXjXjXjXjXjXjXjXjXjXjXjXjXjXjXjXjXjXjX",
"jXjXjXjXjXjXjXjXjXjXjXjXjXjXjXjXjXjXjXjXjXjXjXjX  & & % - e i u p i e - $ & $ $ jXjXjXjXjXjXjXjXjXjXjXjXjXjXjXjXjXjXjXjXjXjXjXjX",
"jXjXjXjXjXjXjXjXjXjXjXjX% = e i k k i r - = & & & $ & $ - f u k p i e - * $ $ & jXjXjXjXjXjXjXjXjXjXjXjXjXjXjXjXjXjXjXjXjXjXjXjX",
"jXjXjXjXjXjXjXjXjXjXjXjX= = f i p k u e - = & 3   & & % - r i k p i w - % & $ & jXjXjXjXjXjXjXjXjXjXjXjXjXjXjXjXjXjXjXjXjXjXjXjX",
"jXjXjXjXjXjXjXjXjXjX& $ % = f i k p p r e * $ & & & & % = e p p p i r - % & & $ jXjXjXjXjXjXjXjXjXjXjXjXjXjXjXjXjXjXjXjXjXjXjXjX",
"jXjXjXjXjXjXjXjXjXjX& & % = e i p k i r - = % & & & & $ - f i p p i e - % $ $ $ jXjXjXjXjXjXjXjXjXjXjXjXjXjXjXjXjXjXjXjXjXjXjXjX",
"jXjXjXjXjXjXjXjXjXjX3 & % = e i p l p r - % $ & $ $ & % @ e i i i r - = % $ $ % jXjXjXjXjXjXjXjXjXjXjXjXjXjXjXjXjXjXjXjXjXjXjXjX",
"jXjXjXjXjXjXjXjXjXjX& & % - f i l p i r - = % % & & % = + e w i i w e o X % $ $ jXjXjXjXjXjXjXjXjXjXjXjXjXjXjXjXjXjXjXjXjXjXjXjX",
"jXjXjXjXjXjXjXjX&   & $ % = e i p p r e = = % $ $ $ % % @ @ e e r e @ + + % X % $ $ jXjXjXjXjXjXjXjXjXjXjXjXjXjXjXjXjXjXjXjXjXjX",
"jXjXjXjXjXjXjXjX& & $ $ * - f i l p f - % % & % % % % + o @ e w e e @ + + + X % X $ jXjXjXjXjXjXjXjXjXjXjXjXjXjXjXjXjXjXjXjXjXjX",
"jXjXjXjXjXjX  $ & & jXjXjXjXjXjXjXjXjXjX% % $ $ % X + + o o O @ @ O O o o X X X % $ $ % jXjXjXjXjXjXjXjXjXjXjXjXjXjXjXjXjXjXjXjX",
"jXjXjXjXjXjXX   & & jXjXjXjXjXjXjXjXjXjX$ % $ % X X + o o O O @ @ O + @ + X X % $ % $ $ jXjXjXjXjXjXjXjXjXjXjXjXjXjXjXjXjXjXjXjX",
"jXjXjXjX$ $ & $ $ $ jXjXjXjXjXjXjXjXjXjX& % % X X X o O O q @ @ @ @ @ O o + X X % $ $ $ jXjXjXjXjXjXjXjXjXjXjXjXjXjXjXjXjXjXjXjX",
"jXjXjXjX& & & & $ $ jXjXjXjXjXjXjXjXjXjX% % % % + o @ O q e r e r f e e e O o + % % % % jXjXjXjXjXjXjXjXjXjXjXjXjXjXjXjXjXjXjXjX",
"jXjXjXjX& & & & $ $ jXjXjXjXjXjXjXjX& % % % + + @ e q w w i g d g f i w q e @ @ + % % % % $ jXjXjXjXjXjXjXjXjXjXjXjXjXjXjXjXjXjX",
"jXjXjXjX$ & & & $ % jXjXjXjXjXjXjXjX% % % % + + @ e w w i a a x x x a i i w e @ o + = % % $ jXjXjXjXjXjXjXjXjXjXjXjXjXjXjXjXjXjX",
"jXjXjXjX  $   & $ $ jXjXjXjXjXjX& & $ % % % = @ f r g g d x b | n v x x p i w q O o X X % % $ $ jXjXjXjXjXjXjXjXjXjXjXjXjXjXjXjX",
"jXjXjXjX$ $ $ & & & jXjXjXjXjXjX& $ % X X + o @ w i l x n v | | | b c z p u y q O O o X X % X   jXjXjXjXjXjXjXjXjXjXjXjXjXjXjXjX",
"jXjXjXjXjXjX& & & $ jXjXjXjX$ $ & & X + + o e r i p x n | | _ _ ` | n c z u y w # o o o X $ $ $ & & jXjXjXjXjXjXjXjXjXjXjXjXjXjX",
"jXjXjXjXjXjX& & & & jXjXjXjX$ $ % % % + + @ r g a v b | _ _ _ _ ` | n c k u y q o o o o X X $ $ & $ jXjXjXjXjXjXjXjXjXjXjXjXjXjX",
"jXjXjXjXjXjX& $ $ $ jXjX$ $ X $ % X + o @ e f g M J [ [ [ _ _ | ` n c l u y w q O o o X X X $ $ $ % jXjXjXjXjXjXjXjXjXjXjXjXjXjX",
"jXjXjXjXjXjX$ & & & jXjX$ % X X X X o @ e f g v J #.0.0.w.[ _ | b n z p y w q O o o o X o o X $ % $ jXjXjXjXjXjXjXjXjXjXjXjXjXjX",
"jXjXjXjXjXjXjXjXjXjX$ & & $ % X + + @ e f i d b { 0.d.s.w.[ _ | c z l i w q q O o o X o o X X X X $ $ $ $ $ jXjXjXjXjXjXjXjXjXjX",
"jXjXjXjXjXjXjXjXjXjX& & & $ X X + + @ e g g x b q.d.M.f.d.#._ | c k i w q O O o o o o o o o o X X X X $ $ & jXjXjXjXjXjXjXjXjXjX",
"jXjXjXjXjXjXjXjXjXjX& & $ % X X X + q w u z n ` w.f._.9Xd.w.[ b z p i e O o o o o o o o o o o X X X % $ & & jXjXjXjXjXjXjXjXjXjX",
"jXjXjXjXjXjXjXjXjXjX& $ $ X + + o @ q y u z n _ #.f.9X_.d.w._ b l i w q O o o o o o o o o o o o + X X $ $ $ jXjXjXjXjXjXjXjXjXjX",
"jXjXjXjXjXjXjXjX% % % X % % o O @ q w y k z c J [ d.f.M.d.#._ b z u w q o o o o o o o o o o o o X X % % % % % $ jXjXjXjXjXjXjXjX",
"jXjXjXjXjXjXjXjXX X X % X + @ @ e w y u k z c | [ w.f.f.e.[ _ b l u w q o o o o o o o o o o o o o o X X % % % $ jXjXjXjXjXjXjXjX",
"jXjXjXjXjXjX$ $ X X % % = + q q w y u k k z c Q _ #.w.e.#._ | c z y w q O o o o o o o o o o o o o X X X % % X X $ & jXjXjXjXjXjX",
"jXjXjXjXjXjX& % % % % + + O q y y u k k k z c Q _ [ w.[ [ _ b c z u y q o o o o o o o o o o o o o o X X X = % % % & jXjXjXjXjXjX",
"jXjXjXjX% % $ & % = % + @ @ w y u k k k k z c b ! _ [ [ _ _ b c k u y e o + o O o o o o o o o O o o o o X % X % & & & & jXjXjXjX",
"jXjXjXjX; : ; ; : : # # s g j a c c n c c c n ~ _ _ [ [ [ _ ` J n v j h s s s s # # # s # , s t t t # # # # : : : ; ; * jXjXjXjX",
"jXjXjXjX7 h N N j V j D D D M J ` _ P ' ` ' ' +.#.e.0.[ w.#.[ [ %.E E K K G D A H G G G H G G D T D D j V V V V B N N s jXjXjXjX",
"jXjXjXjXC D H K H P K L P { @.O.O.$.$.$.#.#.$.w.w.w.d.u.e.d.w.w.$.r.W W E R E R E R E R E R E E E L L E L L L H H H D N jXjXjXjX",
"< < 3 6 N H P E %.O.%.+.+.$.=.w.y.a.y.d.t.t.d.d.d.f.s.n.s.f.f.H.H.f.H.r.r.r.r.r.r.r.r.r.r.r.r.r.r.+.$.+.+.+.+.%.E L H C 6 2 2 < ",
"< < 3 6 B H %.$.$.$.$.y.y.a.p.s.L.J.J.J.J.J.J.Y.Y.J.M.).).).9X).).).E.E.J.H.H.H.H.H.H.H.H.H.H.H.a.d.a.y.t.=.=.$.$.%.L C 6 2 < < ",
"< < 3 6 A U $.:.:.>.>.G.G.P.L.W. X X.XOX X X X X9X(..XOX-X*X:X:X0X:X-X X X X X X X X X X X X X XJ.J.P.G.G.>.>.:.:.O.E D 6 2 . < ",
"< 1 2 6 S E :.>.>.G.U.L.E.E.^. XOX+X+XOX+X&X&X&X*X<X&X=X0X0XiXiXiXtX0X0X&X&X&X&XOX-X&X-X&XOXOXOXOXOXE.E.U.U.K.p.>.$.E S 6   . < ",
"< < 3 8 S E w.u.K.U.L.L.E.^..X.X+X&X-X-X&X=X*X*X*X*X*X=X0XtXiXiXaXiXtX0X0X0X&X-X&X&X-X&X&X&X0X+XOX.X^.E.L.U.U.p.>.:.%.G 7 2 < < ",
"< < 3 8 G @.:.p.K.U.L.E.^..X.XOX&X&X&X=X=X=X=X;X5X;X;XwXiXiXaXfXaXaXiXtX0X0X0X0X0X0X=X&X+X0X+X&X+XOX.X^.E.E.U.G.p.:.R F 8 2 < < ",
"< < 2 8 F @.:.v.K.L.E.^..X.XOXOX*X*X*X*X;X;X;X;X0X0X0XtXiXpXfXgXgXfXaXiXeX0X0X0X0X0X=X=X=X=X=X+X&X+XOX.X^.Q.Y.n.G.:.%.F 0 2 . < ",
"< < 2 8 F @.y.s.L.E.^..X.XOXOX0X*X=X;X;X;X;X;XqX0X0XiXiXpXaXgXhXhXgXaXiXtX0XeX0XqXqX0X=X=X0X=X=X&X+XOXOX(.!.W.Y.G.t.%.F 0 . < < ",
"< < 2 8 Y q.y.s.L.Q.^..XOXOX0X0X;X;X;X;X;X;X5XqXtXiXpXaXaXaXfXgXhXhXfXaXiXtXtXtXqXqXqXqX0X0X0X0X=X*X+XOX.X.X^.E.K.a.%.F 0 2 . < ",
"< < 2 0 Y W y.s.L.E..X.XOXOX0X+X=X*X*X=X;X5X:XwXeXtXyXpXaXsXgXhXhXgXfXaXiXtXtXeXqXqXwXqX5X=X&X*X=X&X&XOX.X^.!.L.G.y.R Y 8 2 < < ",
"< < 3 8 G R y.i.U.E.^.OXOX+X+X+X(.,X%X*X*X;X5X:X5X6X6X6XuXaXfXhXgXgXsXpXeX0X0X0X0X0X0X5X3X#X#X#X+X#X+XOX.XW.L.K.b.w.@.G 6 2 < < ",
"< 2 2 8 A E =.>.b.U.Q..XOXOX@X@X~._.{.%X%X*X5X4X<X<X>X1X6XdXfXgXgXfXdX6X*X-X&X&X=X5X*X+X#X/./.~./.@X+XOX.XW.K.i.u.$.U A 6 2 < < ",
"< < 2 5 C P O.;.>.v.E./.@X@X/.I.N.M.T.].,X<X3X<X>X{._.[.2XuXsXgXgXsXrX1X{.~.{.#X3X4X3X+X/.R.T.A.T./.@X@X(.E.b.u.*.] J D 8 3 < < ",
"< < 2 5 h T / &.-.u.U.Q..X/.I.m.z.z.C.`.{.%X*X,X[.D.A.D.}.8XdXfXfXdX8X{.S.A.`.{.,X3X+X#XI.Z.k.k.m.I./.@X(.Y.u.=.} ~ H B 6 2 < < ",
"< <   * d x Q ^ *.e.n.~.(.~.M.x.<.<.5.A.~.>X%X>X`.Z.k.k.F.2XuXsXsXdX2XF.V.k.A._.#X%X>X~.N.h.<.8.h.M.~.(.W.n.e.*.^ Q n d 5 3 1 < ",
"< < 3 * d x Q ^ } g.n.Y.Q.T.B.5.....5.m.~.>X>X>X_.Z.7.k.F.$XuXdXdX7X$XF.k.7.Z.`.{.%XoX~.m.5.....5.m.R.!.Y.n.e.} ! Q x d * 3 < < ",
"< < 3 * d x Q ^ } e.l.n.N.M.B.5.<.<.5.I.].%X<X>X_.D.k.k.S.$X8XuXuX8X}.S.k.7.Z._.#X#XoX(.A.h.<.8.5.B.T.I.n.b.-.} ! Q v d * 1 < < ",
"< < 3 5 d v ! } } e.l.n.n.m.c.h.5.5.B.`.>X<X4X<X].D.Z.Z.F.}.$X8X8X2X}.D.V.V.F.|.#X,X+X].I.c.7.2.5.c.A.N.N.z.e.} ] _ v d > 1 < < ",
"< 1 3 5 B J { } *.3.g.j.z.z.z.z.x.m.`.~.,X4X6X5X>X].`.D.F.|.}.$X}.}.|.'.F.`._.{.,X&X+X#X~.A.C.z.z.c.c.z.g.g.-.-.*.] J B 5 1 < < ",
"< < 3 6 Z U #.e.e.g.3.1.j.j.z.B.N.`.(.>X4X6XwXwX4X<X$X[.}.'.'.F.'.'.'.|.[.{.#X,X,X,X+X#X/._.I.A.B.j.j.j.4.3.1.-.*.#.P Z 6 3 < < ",
"< < 3 6 S E w.u.g.g.1. . .j.z.N./.#X,X3XwXtXtXtXtX5X6X1X$X'.S.Z.Z.S.`.{.1X6X3X3X*X&X&X+X#X#X+X~.M.j.1.1.1.1.3.e.e.w.R G 8 3 1 < ",
"< < 3 8 S R y.i.g.g. . . . .z.N.(.,X3X6XtXtXtXtXtXtX6X<X>X'.S.V.V.S.`.$X4XqX5X;X&X&X&X*X&X&X+X@XM.z.1. . . .4.g.d.y.@.F 8 3 < < ",
"< 1 2 8 S { w.u.g.4.1. . .1.z.M.(.>X3X4XtXtXiXtXtXwX6X<X$X`.A.V.V.S.'.>X4X6X4X3X*X&X&X&X&X#X+X/.N.z.1. . .,.3.3.u.w.@.F 8 1 < < ",
"< < 1 8 S U 0.u.e.4.1.1. .4.z.N.M.(.>X<X:XeXtXtX5X6X1X>X$X_.F.S.S.F.'.}.>X<X<X%X*X&X&X%X+X#X/.R.N.z.g.1.,.1.3.-.u.=.@.G 6 1 < < ",
"< 1 1 6 B K +.w.>.l.4.4.j.j.z.B.M.M.~.>X<X5X6X6X4X>X$X|.|.'.F.|.'.'.|.|.[.].{.%X&X&X%XoX/._.M.m.B.z.j.j.4.4.3.-.-.#.L Z 5 1 . < ",
"< < 1 5 V J ' } -.-.l.l.B.B.z.h.x.B.N._.%X4X6X4X>X[.D.D.F.|.$X$X$X}.}.'.S.D._.{.+X#XoX{.T.m.C.x.z.z.z.z.l.g.3.-.} ' J B 5   < < ",
"< <   * d n ` ] &.e.l.n.M.M.c.j...h.C.M.>X%X<X1X|.F.V.V.F.}.$X7X8X2X}.F.V.C.A._.#X,X#X~.I.x.2.2.j.z.N.n.v.l.-.} ^ Q v V 5 1 < < ",
"< < 3 * d v Q ^ } -.l.n.T.M.c.5...2.k.M.(.>X<X>X'.Z.k.k.F.$X8XuXrX7X}.S.7.7.C.`.#X,X#X_.m.5.....h.z.N.I.U.b.3.} ! Q x d 5 1 < < ",
"< 1 1 4 d x Q ! } -.l.n.~.T.B.j.....j.M.].%X>X>X`.Z.k.k.F.$XrXdXdXrX}.'.V.7.Z.`.#X,X#X_.A.7.<...5.B.I.!.Y.s.e.} ! Q c d 5 1 < < ",
"< < 1 4 d x Q ! } e.n.N.!.~.N.z.h.2.z.D.(.%X%X%X_.D.V.Z.F.2XuXdXaXuX2X'.V.V.A._.#X,X#X(.A.h.<.<.h.B.R.Q.R.n.e.&.^ Q v d 4 1 < < ",
"< .   5 d v ~ / &.>.v.L.Q.Q.I.m.h.C.m.M.{.%X<X<X>X].D.D.[.8XuXsXsXuX8X}.`.A.`.{.,X<X,X@X`.B.5.5.c.m.R.R.E.v.u.;.} ` M V 5 1 < < ",
"< . 3 > V v ] O.-.9.K.I.Q.Q.I.I.M.M.M.>X%X*X4X3X1X>X[.[.1X6XuXaXpXpXqX2X[.].#X#X3X4X3X+X~.I.m.m.N.I.Q.Q.L.v.u.-.&.' J B 5 1 < < ",
"< . 3 5 B P O.;.-.p.v.U.Q.Q././.~.].>X%X%X=X;X5X3X<X<X<X6XrXpXaXaXiXtXqX<X#X1X4X4X5X3X+X(./.Q.I.L.R.Q.Q.U.v.u.-.*.O.P B 5 1 1 < ",
"< < 3 6 D P $.;.>.p.K.U.Q.Q.^.@X>X%X>X*X*X;X;X;X5X5X6X6XyXyXpXpXiXiXiXtXwXqX6X6X5X5X=X*X+X@X/.^.^.Q.Q.Q.U.v.p.:.=.O.P B 5 1 < < ",
"< < 1 6 D L +.:.:.p.v.U.L.E..XOX%X-X*X=X=X;X;X0XqXtXwXtXyXtXyXiXiXtXiXtXiXeX0X0XqXqX=X*X&X+X.X.X^.Q.E.L.U.K.u.>.=.O.L D 6 3 < < ",
"< .   6 D L +.$.:.u.p.K.U.E.^..X%X-X&X*X*X;X=X;X0X0XtXtXtXtXeXeXeXeXeXtXtXeX0X0X=X=X*X&X&X+XOX.X^.Q.L.U.K.p.u.:.=.%.L Z 6 2 < < ",
"< < 3 6 C H E %.$.:.u.p.U.U.E.Q.)..XXXOX%X%X%X*X*X;X;X;X5X5X:X:X0X0X0XqX0X0X=X=X*X&X+XOX.X.X^.E.L.U.U.U.p.y.:.$.%.E K C 6 2 < < ",
"< < & 9 0 Z A E R $.:.u.v.U.U.U.E.Q.!.^. XXXOX%X%X%X&X&X*X-X-X%X=X&X=X&X&X&X&XOX+X+X@X^.^.E.L.L.U.K.K.K.u.:.$.%.K K C N 6 3 < < ",
"jXjXjXjX8 N C S E E $.:.p.G.U.U.U.U.E.E.E.^..X.X.X.XOXOX.X.XOX.XOXOXOXOXOX.X XOX.X.X^.E.E.U.U.U.U.K.v.p.>.=.%.K S C N 7 jXjXjXjX",
"jXjXjXjX7 6 7 8 S E E :.>.>.p.p.v.G.K.L.L.E.E.^.W.W.^.^.W.^.^. X.X^.^.^.^.E.^.^.E.E.E.G.U.U.v.v.K.9.9.>.:.$.E A 8 7 6 6 jXjXjXjX",
"jXjXjXjXjXjX1 9 N G E $.>.>.>.>.>.>.p.p.G.G.L.J.L.P.J.P.Y.Y.Y.W.J.E.E.G.U.G.G.G.L.L.G.G.p.p.>.>.>.>.>.:.$.E H N 9 2 jXjXjXjXjXjX",
"jXjXjXjXjXjX< 1 7 Z E %.$.:.:.:.:.:.:.y.y.a.a.a.a.a.a.G.a.a.s.J.G.G.G.H.G.G.H.p.G.G.G.p.:.:.:.=.=.=.=.=.%.E A 7 2 < jXjXjXjXjXjX",
"jXjXjXjXjXjX< 2 6 A K E %.+.+.+.$.+.$.$.r.r.0.r.r.r.r.r.t.t.r.t.r.r.r.r.r.r.r.r.q.r.r.$.E +.+.+.+.+.%.E L E N 6 2 < jXjXjXjXjXjX",
"jXjXjXjXjXjX. 3 6 C S K H L L E E L E E R W R W W W W W W W W W W W W W R W W R R R E E E E L L L L K E K A N 6 2 < jXjXjXjXjXjX",
"jXjXjXjXjXjXjXjX9 6 N C A A A A A A D A F F F F F F F F F F F F F F F F F F F F F F A G F G A A D D A A C N 7 7 jXjXjXjXjXjXjXjX",
"jXjXjXjXjXjXjXjX9 9 9 7 7 7 7 7 7 7 7 7 0 0 0 0 0 0 0 0 0 0 0 0 0 0 0 0 0 0 0 0 0 0 0 0 0 0 7 7 7 7 7 7 7 6 6 6 jXjXjXjXjXjXjXjX",
"jXjXjXjXjXjXjXjXjXjX2 2 2 1 2 1 < < 2 2 2 2 2 2 2 2 2 2 < 2 2 2 2 2 2 2 2 2 2 2 2 2 2 2 2 2 2 2 < 2 2 2 2 2 jXjXjXjXjXjXjXjXjXjX",
"jXjXjXjXjXjXjXjXjXjX< < < < < < < < < < < < < < < < < < < < < < < < < < < < < < < < < < < < < < < < < < < < jXjXjXjXjXjXjXjXjXjX",
"jXjXjXjXjXjXjXjXjXjX< < < < < < < < < < < < < < < < < < < < < < < < < < < < < < < < < < < < < < < < < < < < jXjXjXjXjXjXjXjXjXjX",
"jXjXjXjXjXjXjXjXjXjX< < < < < < < < < < < < < < < < < < < < < < < < < < < < < < < < < < < < < < < < < < < < jXjXjXjXjXjXjXjXjXjX"
};
