/* XPM */
static char *result[] = {
/* columns rows colors chars-per-pixel */
"64 64 191 2 ",
"   c #010100",
".  c #1E160E",
"X  c #2B1D0E",
"o  c #24180C",
"O  c #261D15",
"+  c #2D2112",
"@  c #2D2219",
"#  c #31271C",
"$  c #33281E",
"%  c #332617",
"&  c #372C22",
"*  c #36393E",
"=  c #3C3024",
"-  c #48331D",
";  c #45382C",
":  c #493826",
">  c #533B22",
",  c #59432C",
"<  c #574128",
"1  c #4F4031",
"2  c #5D4935",
"3  c #614E3C",
"4  c #644C33",
"5  c #68523C",
"6  c #775838",
"7  c #3D3E40",
"8  c #3D414A",
"9  c #414142",
"0  c #4A494B",
"q  c #4E545C",
"w  c #6E5944",
"e  c #685644",
"r  c #715B46",
"t  c #755E48",
"y  c #7A624A",
"u  c #505560",
"i  c #596069",
"p  c #4E6D7E",
"a  c #5E727B",
"s  c #6B6B6B",
"d  c #646467",
"f  c #676D79",
"g  c #767676",
"h  c #7B7A7A",
"j  c #797C76",
"k  c #856748",
"l  c #926B42",
"z  c #856C54",
"x  c #8A6F56",
"c  c #907050",
"v  c #9C7C5C",
"b  c #95775A",
"n  c #8B7359",
"m  c #A2784E",
"M  c #A1774B",
"N  c #A57E58",
"B  c #967A60",
"V  c #B18455",
"C  c #9A8166",
"Z  c #8B8374",
"A  c #9B8971",
"S  c #978777",
"D  c #A58463",
"F  c #A98A6B",
"G  c #B48E68",
"H  c #BD966B",
"J  c #B29372",
"K  c #BE9C7A",
"L  c #C28F5A",
"P  c #C3925F",
"I  c #C69666",
"U  c #CF9961",
"Y  c #C1976A",
"T  c #C4996C",
"R  c #CB9B69",
"E  c #D49D65",
"W  c #D59F68",
"Q  c #CA9E72",
"!  c #C19E7C",
"~  c #DAA267",
"^  c #DCA56B",
"/  c #D6A26C",
"(  c #CBA075",
")  c #CBA37C",
"_  c #C5A17F",
"`  c #D3A574",
"'  c #DBA771",
"]  c #DEAA74",
"[  c #DCAC7D",
"{  c #D5A97C",
"}  c #E1AC77",
"|  c #E1AE7A",
" . c #E3B17E",
".. c #3F6780",
"X. c #316282",
"o. c #6F7886",
"O. c #717A88",
"+. c #7D8698",
"@. c #8B8B8E",
"#. c #83858A",
"$. c #878C99",
"%. c #979EAC",
"&. c #97A2B7",
"*. c #A7AFBD",
"=. c #BCBDBF",
"-. c #CEA985",
";. c #CAA581",
":. c #D4AA82",
">. c #DEB083",
",. c #DCB38D",
"<. c #DEBB97",
"1. c #DDBA99",
"2. c #D9B79A",
"3. c #E5B584",
"4. c #E7B887",
"5. c #E3B68B",
"6. c #E4B88C",
"7. c #EABB8E",
"8. c #E4BC94",
"9. c #EBBE92",
"0. c #E3BF9C",
"q. c #D8BCA4",
"w. c #EDC196",
"e. c #E6C29B",
"r. c #EFC49B",
"t. c #E6C097",
"y. c #DFC5AF",
"u. c #DDC9BB",
"i. c #E4C3A4",
"p. c #EBC8A6",
"a. c #EBCBAA",
"s. c #ECCFB1",
"d. c #E6CFBC",
"f. c #E7CFB7",
"g. c #EED1B5",
"h. c #EDD5BC",
"j. c #F4D5B8",
"k. c #AAB3C5",
"l. c #B4BBCA",
"z. c #AFBAD1",
"x. c #B9C1D1",
"c. c #DACEC4",
"v. c #DACDC8",
"b. c #D7CBC8",
"n. c #D1D4D9",
"m. c #D9D9D9",
"M. c #C9CFDC",
"N. c #EFD9C4",
"B. c #E2D4CB",
"V. c #EFDECF",
"C. c #F2DBC5",
"Z. c #F2DECB",
"A. c #E6D9D2",
"S. c #E4DCDB",
"D. c #E6D9D3",
"F. c #F1E0CF",
"G. c #ECE2DC",
"H. c #F3E4D4",
"J. c #F5E6D8",
"K. c #F7EADD",
"L. c #F8E9DA",
"P. c #CDD7EB",
"I. c #DDDEE7",
"U. c #D1D9E7",
"Y. c #D1DEF7",
"T. c #E4DFE0",
"R. c #DCE4F6",
"E. c #DCE6FC",
"W. c #DFE9FD",
"Q. c #D7E2F7",
"!. c #E3E1E3",
"~. c #E4E3EA",
"^. c #EDEAEB",
"/. c #E8E7E9",
"(. c #F4EAE3",
"). c #F8EEE3",
"_. c #F9F0E7",
"`. c #FAF2EB",
"'. c #E5EAF7",
"]. c #EAECF4",
"[. c #E4ECFC",
"{. c #E8EFFC",
"}. c #E5E6F0",
"|. c #EBF1FE",
" X c #F5F3F3",
".X c #FBF6F2",
"XX c #FDFAF7",
"oX c #F3F6FE",
"OX c #F6F8FE",
"+X c #FEFEFE",
"@X c None",
/* pixels */
"@X@X@X@X@X@X@X@X@X@X@X@X@X@X@X@X@X@X@X@X@X@X@X@X@X@X@X@X@X@X        @X@X@X@X@X@X@X@X@X@X@X@X@X@X@X@X@X@X@X@X@X@X@X@X@X@X@X@X@X@X",
"@X@X@X@X@X@X@X@X@X@X@X@X@X@X@X@X@X@X@X@X@X@X@X@X@X@X@X@X@X@Xx z n n @X@X@X@X@X@X@X@X@X@X@X@X@X@X@X@X@X@X@X@X@X@X@X@X@X@X@X@X@X@X",
"@X@X@X@X@X@X@X@X@X@X@X@X@X@X@X@X@X@X@X@X@X@X@X@X@X@X@X@X@XF ;.,.,.-.F @X@X@X@X@X@X@X@X@X@X@X@X@X@X@X@X@X@X@X@X@X@X@X@X@X@X@X@X@X",
"@X@X@X@X@X@X@X@X@X@X@X@X@X@X@X@X@X@X@X@X@X@X@X@X@X@X@X@Xb J ,.r.r.,.J B @X@X@X@X@X@X@X@X@X@X@X@X@X@X@X@X@X@X@X@X@X@X@X@X@X@X@X@X",
"@X@X@X@X@X@X@X@X@X@X@X@X@X@X@X@X@X@X@X@X@X@X@X@X@X@X> k ) r.r.r.r.r.r.) k < @X@X@X@X@X@X@X@X@X@X@X@X@X@X@X@X@X@X@X@X@X@X@X@X@X@X",
"@X@X@X@X@X@X@X@X@X@X@X@X@X@X@X@X@X@X@X@X@X@X@X@X; w m T 5.r.r.r.r.r.r.5.R m 5 1 @X@X@X@X@X@X@X@X@X@X@X@X@X@X@X@X@X@X@X@X@X@X@X@X",
"@X@X@X@X@X@X@X@X@X@X@X@X@X@X@X@X@X@X@X@X@X@X@X& z N I ] 7.r.r.r.r.r.r.7.[ I D y & @X@X@X@X@X@X@X@X@X@X@X@X@X@X@X@X@X@X@X@X@X@X@X",
"@X@X@X@X@X@X@X@X@X@X@X@X@X@X@X@X@X@X@X@X@X@X; w J :.' [ 9.r.r.r.r.r.r.7.} ' >.J e ; @X@X@X@X@X@X@X@X@X@X@X@X@X@X@X@X@X@X@X@X@X@X",
"@X@X@X@X@X@X@X@X@X@X@X@X@X@X@X@X@X@X@X@X@X@X! -.8.7.} } 9.r.r.r.r.r.r.9.} } 9.8.:.;.@X@X@X@X@X@X@X@X@X@X@X@X@X@X@X@X@X@X@X@X@X@X",
"@X@X@X@X@X@X@X@X@X@X@X@X@X@X@X@X@X@X@X@X6 b :.9.r.9.} } 9.r.r.r.r.r.r.7.} } 9.r.9.:.c 6 @X@X@X@X@X@X@X@X@X@X@X@X@X@X@X@X@X@X@X@X",
"@X@X@X@X@X@X@X@X@X@X@X@X@X@X@X@X@X@XO , N ` 7.r.r.7.} } 7.r.r.r.r.r.r.9.} } 8.r.r.6.` N 2 O @X@X@X@X@X@X@X@X@X@X@X@X@X@X@X@X@X@X",
"@X@X@X@X@X@X@X@X@X@X@X@X@X@X@X@X@X; y B Q 3.9.r.r.7.} } 9.r.r.r.r.r.r.7.} } 9.r.r.9.4.Q v t ; @X@X@X@X@X@X@X@X@X@X@X@X@X@X@X@X@X",
"@X@X@X@X@X@X@X@X@X@X@X@X@X@X@X@X: w ;.9.3.4.9.r.r.7.} } 7.r.r.r.r.r.r.9.} } 7.9.r.9.3.3.9.) r ; @X@X@X@X@X@X@X@X@X@X@X@X@X@X@X@X",
"@X@X@X@X@X@X@X@X@X@X@X@X@X@X@X@X! ;.6.8.3.4.9.r.r.9.} } 7.r.r.r.r.r.r.7.} } 9.r.r.9.3.3.9.8.;.K @X@X@X@X@X@X@X@X@X@X@X@X@X@X@X@X",
"@X@X@X@X@X@X@X@X@X@X@X@X@X@Xk b ) 7.r.9.3.3.9.r.r.7.} } 9.r.r.r.r.r.r.7.} } 9.r.r.9.4.4.9.r.7.Q v y @X@X@X@X@X@X@X@X@X@X@X@X@X@X",
"@X@X@X@X@X@X@X@X@X@X@X@X@Xx G Q >.9.9.9.3.3.9.r.r.9.} } 9.r.r.r.r.r.r.9.} } 7.r.r.9.4.3.9.9.9.>.Q G x @X@X@X@X@X@X@X@X@X@X@X@X@X",
"@X@X@X@X@X@X@X@X@X@X@Xw B F :.4.7.7.9.9.7.3.9.r.r.9.} } 7.r.r.r.r.r.9.7.| } 9.r.9.9.3.3.9.9.7.7.7.:.F b w @X@X@X@X@X@X@X@X@X@X@X",
"@X@X@X@X@X@X@X@X@X@X2 z ! 8.7.7.7.7.r.9.4.3.9.r.r.7.} } 9.r.r.9.9.r.9.7.} } 7.r.r.9.4.4.9.9.9.4.7.7.8.! z e @X@X@X@X@X@X@X@X@X@X",
"@X@X@X@X@X@X@X@X  & c Q 6.r.9.7.7.9.9.9.3.3.9.r.r.7.} } 7.9.4.| 4.4.9.9.} } 7.r.r.9.3.4.9.r.7.7.7.9.r.6.Q c &   @X@X@X@X@X@X@X@X",
"@X@X@X@X@X@X@X@XB N Q >.8.9.9.7.5.7.9.9.3.4.9.r.r.9.} } 4.4.} ' ] | 4.4.} } 7.r.r.9.3.3.9.r.9.7.7.9.9.9.>.Q v B @X@X@X@X@X@X@X@X",
"@X@X@X@X@X@X@XD -.,.3.3.9.9.7.4.9.9.9.9.3.3.9.r.r.7.} ^ ] ] ^ ~ ~ ^ ] } ^ } 9.r.r.9.7.4.9.r.7.4.4.9.9.9.7.3.5.-.D @X@X@X@X@X@X@X",
"@X@X@X@X@X@XB J ,.9.3.3.9.9.7.7.7.9.r.9.3.4.9.r.r.9.} ^ ~ ' 3.6.4.3.' ~ ^ } 7.r.r.9.3.3.9.w.9.7.7.9.r.9.3.3.9.5.J B @X@X@X@X@X@X",
"@X@X@X@X% 3 K r.r.9.4.4.9.r.9.7.7.7.9.9.4.4.9.r.9.7.} ^ ' 6.C.).(.Z.4.' ^ } 9.9.9.9.3.3.9.r.7.7.7.7.9.9.3.3.9.r.r.! 3 % @X@X@X@X",
"@X@X@ , m Q 6.r.r.9.3.7.9.9.7.4.7.9.9.9.3.4.9.9.4.| ^ [ 1.d.(.oXOXG.N.1.} ^ | 7.9.9.3.4.9.w.7.7.7.7.9.9.3.3.9.r.r.6.Q m , @ @X@X",
"@X@Xz v I } 9.r.r.9.3.3.9.r.9.7.7.9.9.9.4.3.4.4.} ]  .0.B.T.[.[.[.}.T.B.0.>.] } 6.7.3.4.9.w.7.7.7.7.w.w.3.4.w.r.r.9.} I C n @X@X",
"@Xy K :.' } 7.r.r.9.3.4.9.r.9.7.4.7.9.9.3.| | } ] 5.a.V.^.|.|.|.|.|.{.^.V.s.5.] } } } 3.9.w.7.7.4.9.w.9.3. .9.r.r.9.] ' :._ z @X",
"# e K 7.} } 7.r.r.9.3.4.9.9.7.7.7.9.9.9.3.} ^ ] 6.s.).XX+X+X+X+XXX+X+X+XXX(.s.6.] ^ } 3.9.w.7.7.7.7.w.w.3.3.9.r.r.9.} } 7.! e = ",
"# 2 K 9.} } 9.r.r.9.3.3.9.9.7.7.7.9.9.9.} ^ ^ 3.N._.XX+X+X+X+X+X+X+X+X+X+XXX).N.3.^ ^  .7.w.7.7.7.9.w.w.3.3.w.r.r.7.} } 7.! 3 $ ",
"# 2 K 7.} } 7.r.r.9.3.3.9.9.9.7.7.4.| } } { q.b.I.'.[.[.[.[.[.[.[.[.[.[.[.[.'.T.v.q.{ ^ }  .4.7.7.7.w.9.3.3.w.r.r.9.} } 9.! 3 $ ",
"@ e K 9.} } 7.r.r.9.4.3.9.r.7.4.3.} } } 3.i.D.}.{.|.|.|.}.~.S.D.D.S.~.].{.{.{.{.}.A.i.3.} ] }  .3.7.r.9.3.3.9.r.r.9.} } 7.! 3 # ",
"# e K 6.} } 9.r.r.w.4.3.9.r.7.3.} ^ ^ >.s.J. XOXOXXXOX`.H.h.i.8.8.i.g.H..XOXOXOXXX XJ.g.3.^ ^ } 3.9.w.9.3.3.w.r.r.7.} } 7.! 3 $ ",
"# 2 K 8.} } 9.r.r.9.3.3.9.w.7.3.^ ^ 3.a.).XX+X+X+X+X+XL.p.3.^ ~ ^ ' 3.p.L.XX+X+X+X+X+X).p. .^ ]  .7.w.9.3.3.w.r.r.7.} } 7.! 3 $ ",
"# 3 _ 7.} } w.r.r.7.3.3.w.7.] ~ ^ ,.F..X+XOX+XOXOX_.C.r. .~ E / E E ~  .e.C._.+XOX+X+XOXXXV.6.^ ^ ] 7.9.4. .w.r.r.w.} } w.K 3 $ ",
"# 3 K 7.} } 4.r.r.w.3. . .] ] [ q.b.~.[.[.[.[.W.{.S.i.[ / H Z j j Z H / [ i.S.[.[.[.[.[.W.~.v.q.[ ] }  .| 3.w.r.r.4.} } 7.( 3 $ ",
"$ 5 ! 7.} } 4.r.r.w. .^ ~ ] 3.i.D.].{.{.{.{.{.{.{.G.<.` T A a ..p a S H ` 0.S.[.|.[.{.{.{.{.^.D.i.3.] ~ ' } w.r.r.4.} } 9.! 3 # ",
"& e _ w.} } w.r.w.4.] ~ ' 3.g.H..X+X+X+X+X+X+X+XOXK.t.( J Z p X.X.p Z J ( t.K.+X+X+X+X+X+X+X+X.XH.g.3.' ~ ] 4.w.r.w.} } 7.! 2 # ",
"& e _ 7.} } w.w.6. .^ ] 7.g._.+X+X+X+X+X+X+X+X+X+XK.t.` T A a ..p a A Y ' t.K.+X+X+X+X+X+X+X+X+X+X_.g.8.] '  .7.w.7.} ] 9.K 3 $ ",
"$ 3 K 7.} ]  .4.} ' [ <.B.!.'.|.|.|.|.|.|.{.|.{.|.~.v.2.` H A Z Z A Y ` 2.v.~.{.{.|.|.{.|.{.|.|.|.'.!.B.1.[ ' } 4.4.] } 7.K 2 $ ",
"$ 3 K 7.] ^ } } ^ [ i.B.~.|.|.{.|.|.|.|.|.|.|.|.|.'.~.A.i.>.( Y H Q >.y.A.~.'.|.|.|.|.|.|.{.|.|.|.|.[./.B.i.[ ^ } } ] } 8.K e @ ",
"$ 2 _ 7.] ^ ^ ] 5.p.H. XoXoXoXOXoXoXoXoXoXoXoXoXoXoXoX XH.h.e.8.<.0.h.F. XoXoXOXoXoXoXoXoXoXoXOXoXOXOXoX`.H.p.,.} ^ ~ ] 7.K 3 $ ",
"$ 3 K 4.' ~ P [ h._.XX+X+X+X+X+X+X+X+X+X+X+X+X+X+X+X+X+XXX`._.K.)._.`.XX+X+X+X+X+X+X+X+X+X+X+X+X+X+X+X+X+XXX_.h.{ E ~ ] 4.K 3 # ",
"# 2 H } ^ L l C c.XXOX+X+X+X+X+X+X+X+X+X+X+X+X+X+X+X+X+X+X+X+X+X+X+X+X+X+X+X+X+X+X+X+X+X+X+X+X+X+X+X+X+X+XOXXXc.C l L ^ } G 2 # ",
"+ < V ^ E M > 0 *.Q.R.E.W.W.E.W.E.E.}.T.N.j.j.j.j.j.j.j.j.j.j.j.j.j.j.j.j.j.j.j.j.j.j.N.T.E.E.E.E.W.W.E.E.E.Q.*.0 : M E ~ V < + ",
"X > m P P 6 . * &.Y.W.[.[.[.[.[.[.[.}.D.0. .3.3. .3. .3.3.3. .3. .3.3. .3. .3.3. .3.3.e.D.}.'.[.[.[.[.[.[.W.Y.z.u X < 6 V M > X ",
"X - 6 k @X@X  0 k.[.oX+X+X+X+X+X+XOX.XC.3.~ ~ ^ ~ ^ ^ ~ ^ ^ ^ ^ ^ ^ ~ ~ ^ ~ ~ ^ ~ ^ W 5.C.`.XX+X+X+X+X+X+XOX'.R.@X@X  O 6 6 - X ",
"@X@X    @X@X@X@XXXXX+X+X+X+X+X+X+XXX`.C.5.~ } [ } } } } } } } } } } } ] } } } ] } ] ^ 6.N..XXX+X+X+X+X+X+X+XXXoX@X@X@X@X    @X@X",
"@X@X@X@X@X@X@X@X].{.|.|.|.oX|.oXoX|.].V.<.[  .6.9.w.w.w.w.9.9.9.9.w.w.w.w.w.w.7.4.3.[ 1.A.].oXoXoX|.|.oX|.|.|.l.9   @X@X@X@X@X@X",
"@X@X@X@X@X@X@X@X%.k.P.[.[.{.{.{.{.{.[.S.y.,. . .7.r.r.r.r.r.r.r.r.r.r.r.r.r.r.w. .[ ,.i.T.[.{.{.{.{.{.[.[.U.*.$.0 @X@X@X@X@X@X@X",
"@X@X@X@X@X@X@X@X8 f x.{.|.oX|.oX|.oX|.^.d.8.] } 7.r.r.r.r.r.9.9.9.9.r.r.r.r.r.7.} ] 0.d.^.oX|.oX|.oX|.|.[.x.f 9 @X@X@X@X@X@X@X@X",
"@X@X@X@X@X@X@X@X  7 l.OX+X+X+X+X+X+X+X_.h.8.} } 7.r.r.r.r.w.4. .| 4.9.r.r.r.r.9.} [ 8.h._.+X+X+X+X+X+X+XOX=.8   @X@X@X@X@X@X@X@X",
"@X@X@X@X@X@X@X@X  9 =.+X+X+X+X+X+X+X+X_.h.t.} } 7.r.r.r.r.7. .} }  .9.r.r.r.r.7.} ] 8.j._.+X+X+X+X+X+X+X+X=.9   @X@X@X@X@X@X@X@X",
"@X@X@X@X@X@X@X@X  * *.[.W.W.E.[.W.[.W.I.u.1.{ } 7.r.r.r.r.w.7.7.7.7.r.r.r.r.r.7.] ] 2.u.I.[.W.W.W.W.W.[.W.*.*   @X@X@X@X@X@X@X@X",
"@X@X@X@X@X@X@X@X@X8 +.k.U.|.{.|.|.|.|.].G.f.>.] 3.7.w.r.r.r.r.r.w.r.r.r.r.r.9.3.' >.f.G.].|.{.|.|.[.|.U.k.+.8 @X@X@X@X@X@X@X@X@X",
"@X@X@X@X@X@X@X@X@X@Xi #.n.OXOX+X+X+XOX+X+XJ.6.^ } 4.w.r.r.r.r.r.r.r.r.r.r.9.3.} ^ 6.J.+X+X+X+X+X+X+XOXn.+.i @X@X@X@X@X@X@X@X@X@X",
"@X@X@X@X@X@X@X@X@X@Xd @.m.+X+X+X+X+XOX+X+XJ.6.~ } 4.9.r.r.r.r.r.r.r.w.w.9.7.3.} ^ 6.J.+X+X+X+X+X+X+X+Xm.@.d @X@X@X@X@X@X@X@X@X@X",
"@X@X@X@X@X@X@X@X@X@Xd @.n.OXOXOXOXOXOXOXOXH.5.^ } 7.9.r.r.r.r.r.r.9.3.| } }  .[ ^ 6.H.oXOXOXOXOXOXOXoXn.@.d @X@X@X@X@X@X@X@X@X@X",
"@X@X@X@X@X@X@X@X@X@Xq o.l.Q.W.[.{.[.[.{.{.S.,.^ } 4.9.r.r.r.r.r.r.w.4. .| | | | ' 5.D.[.[.[.{.[.{.W.Q.x.o.u @X@X@X@X@X@X@X@X@X@X",
"@X@X@X@X@X@X@X@X@X@X@XO.z.P.[.|.|.|.|.|.|.G.i.3. .3.9.r.r.r.r.r.r.w.7.7.7.3. .|  .i.G.|.|.|.|.|.|.[.P.z.O.@X@X@X@X@X@X@X@X@X@X@X",
"@X@X@X@X@X@X@X@X@X@X@X@XM.U.].+X+X+X+X+X+X`.F.p.3.} 7.w.r.r.r.r.r.r.r.r.w.7.| 3.p.F.`.+X+X+X+X+X+XoXI.M.@X@X@X@X@X@X@X@X@X@X@X@X",
"@X@X@X@X@X@X@X@X@X@X@X@Xm.!. X+X+X+X+X+X+X+X+XH.6.] 7.r.r.r.r.r.r.r.r.r.w.7.} 6.H.+X+X+X+X+X+X+X+X X/.!.@X@X@X@X@X@X@X@X@X@X@X@X",
"@X@X@X@X@X@X@X@X@X@X@X@Xg g h h g g g g O.Z #.S T V b t r w w w w w r r t c P Y Z g g g g g h h g g s s @X@X@X@X@X@X@X@X@X@X@X@X",
"@X@X@X@X@X@X@X@X@X@X@X@X@X@X@X@X@X@X@X@X@X@X@Xt 6 6 4 @X@X@X@X@X@X@X@X@X@X4 6 6 e @X@X@X@X@X@X@X@X@X@X@X@X@X@X@X@X@X@X@X@X@X@X@X",
"@X@X@X@X@X@X@X@X@X@X@X@X@X@X@X@X@X@X@X@X@X@X@X@Xo o @X@X@X@X@X@X@X@X@X@X@X@XX + @X@X@X@X@X@X@X@X@X@X@X@X@X@X@X@X@X@X@X@X@X@X@X@X",
"@X@X@X@X@X@X@X@X@X@X@X@X@X@X@X@X@X@X@X@X@X@X@X@X@X@X@X@X@X@X@X@X@X@X@X@X@X@X@X@X@X@X@X@X@X@X@X@X@X@X@X@X@X@X@X@X@X@X@X@X@X@X@X@X"
};
