/* XPM */
static char *result[] = {
/* columns rows colors chars-per-pixel */
"64 64 41 1 ",
"  c #21461A",
". c #234B1B",
"X c #26521D",
"o c #28571E",
"O c #29591F",
"+ c #2A5C20",
"@ c #2D6322",
"# c #2F6923",
"$ c #316C24",
"% c #347426",
"& c #357827",
"* c #367628",
"= c #38772A",
"- c #377929",
"; c #3A7C2C",
": c #3E7F30",
"> c #3D802F",
", c #3E8030",
"< c #428434",
"1 c #458837",
"2 c #468739",
"3 c #468939",
"4 c #4A8B3C",
"5 c #4E8E41",
"6 c #508F43",
"7 c #4F9043",
"8 c #529245",
"9 c #569549",
"0 c #59974C",
"q c #57984A",
"w c #5B994E",
"e c #5E9B51",
"r c #619E55",
"t c #63A057",
"y c #66A35A",
"u c #69A65D",
"i c #6AA85E",
"p c #6CAA61",
"a c #70AE65",
"s c #73B067",
"d c #76B26A",
/* pixels */
"<,<<<<>>1,1111<><><1qriasddspt94111>11>1<<<<<<<<<<<><14eissddddd",
"<<<<<<111111<111<<<14wuaassaie841<><>1>1<<1<<111<<<<<14qtaasssss",
"<<<14444344411>1<><14qtiiiiitw441<<<111344441443<1>1<14qripaiipp",
">,<14444444411>><><<4qerttree94<<>><>14446444443<><><144qrrrttrr",
">>114799qqq441<>>>><<3684q8484<<>>>>>13480990852>>>>>><1849444qq",
">>,34qqrereq44>>;>->><<211<1<<::-->>114qwrrwew63<>&>&><<<11<3111",
">,137qrtttteq4<>;--;---=>---;---->>>>1qqryyrrr94<>>>&&>-:;&-&>>>",
",334qrtuyyytq431>;;-%*%$$$$$%%&*-->114qrryyyyrw631>>>&&&%%%$$$%$",
"6669rrryuyytw9842:;=%$@@@+O+@$$*><<148wryyyyyrr9944<;**$#@@@@@@@",
"00errryuuyytre086<;=$@OOooooO@$*><440wrtyyyyyyrrw941;=%#OoOooooo",
"rrryryuuyyuyyrrr84;*$@X.....XO#*<38wrryyyyyuyyyrreq4:*$@oX......",
"yuyyyuruyyyyyyyr94;*#O.. . .X+#*;38wryyyuyyyyyyyyr44:*#+X..     ",
"yyyyrpruuyyyyyur94;*$OX.   ..+$=>38wtuyuyyyyyuyuyr94:=$+X.      ",
"yuyypypryyyyyyyr03:*$OX..  .X+@=>38etuyyyyyyuyyyyt94:*#+X.      ",
"yyyuyyyyyyyuyyyr94;*$OX.   ..+@%>38etuyyyyyuuuyuyr94:&$+X.      ",
"rrrrtyuyyyuttrtw83;*$@OX...Xo+$%;38wetttyyyyuytttw91:*$@oX.. .  ",
"00qweyyyuuure0975,,%%@@++++++@$%-<48q0erttutuyrwq443:**$@Ooooooo",
"2577eeyyrpyr06422,--%$##@@@@$$%%-<23480etyttttwq44<<;;*$$###@@#@",
":,259eyyprrr85::-;&&%%%%$$$$%%%%-;;>238wtyiiur94<<<---**%%$$%%%%",
"*=,270eerrrw62:*;;---;;;====;;==--&;>249etutr083<;-&-*---;:;;;:;",
";-:<479099984,>-----:,,222222::=*%-;;<46q0000842-&--&-;,24222222",
"&;;:<24555541,-----;,247666652:=*%--;:234444422;-&&-&:<344886688",
"--;;;::<<<,,>-----;-<48wrrr0652:-&--;;::<<<<<<;;&&---;<480wewww0",
"---&===*;;;;-----;;,25eerrrr062<;;;--=-======--&-&-;::340wrrrrre",
"---&%%#$$$%$%%-&,,<459rrurure962<<;;***$$$$$$*%%====:249wrryyyry",
"--&%$#@@@+@##%=;,24790rruuuyre863<<;%$##@@@OO@$%=;:22680rryyyyuy",
"&&%$@OoXX+++@$%;<48wrrruyyyyyre0q42:*$@OXXXXoO@$=;2480wrryuuyyyy",
"&-&#@XX....o@#%;25wrrruryyyyyyrr083:-$@OX....XO$=;260rrrruruuyuy",
"-%%#@X.   ..+#%:26ertyrpuyuyyyyrw94,-$@O... ..+@$:<8eruuyuyuyyyy",
"--%$OX.   .X+#%;46rryypyyyyyyyyye94,*$Oo.    .o@%;28eyupuyyyyyuu",
"&&%#OX.    .+#%;28ryyyyyyyyyyyyre94<*$@X. .  .o#%:28eruuyyuyruip",
"&%%#@X......+#%;26eryyyyyuyuyyyyw94<*$Oo......O@%,26wrryruuurrip",
"**%$@+XXXXXo+$%;240eryyyuyyyyrtrw42:*$#OXXXXXX+$=:26eerryyuyyyiu",
"**%$#@Ooooo@@$%;<440wetyyyyyreew94<;*$#@+oooo+@$=:<2440etyyyyyyy",
"*%%%$#@@@@#@$%%;:2248wrryyyrtw844<:;*%$#@@@@@#$==:::144wryyyyyyy",
"%*===$$$$*$%*%%==::248wryyyte94<<:;;-**$$$=$$$$=*==:<440eytttyty",
"-&--;:=:::;;;;=*=>=<240errre044<=---;;;=;;:=====**-;;<240rrreere",
"&--;:<22<<<<<:;===;=<4400w0044<:=---;;;<22<2<<,:-*&-&&1489900000",
"--<<24646444<:==---;:24444441<<;----=<244444442:-*-*&;<144444448",
"-;;<469ww0094<:=;---=:<<2<<2<;<;---=;2440we0w042;---&-;;:<<<2<22",
"<;<14wrttrr044<:;;-----====;---;--=><<40etrrre94<--***=========;",
"<<14wryyyyyre42<<>-&-%$$$$$$$*%*-=><440etuyuirw4<:<:-%=%$$$$$$$$",
"4449wryyyyyre044<<--&$@@@@@##$%*;:<440weyyyyyre0644<:&%$$@@+@@@+",
"wwwerryyyyyyre083<;&$$+ooooO+@$%;<480eertyuyyrrrw94<:*$@@++ooOOO",
"rrryyyyyyuyytttw4<=*$+o.....o+#*><4etttyyyyyyyyrre84:=#@O.... ..",
"yyyyyyyyyyyyuyyr82<*$+.     .O@%>44etuyyyyyyyyyuurq4<=$+X.      ",
"yyuyyyyyyyyyyyyr04<=$+X    .X+#*>28etyyuyyyyyyyyut94<=$+o.      ",
"uyyyyyuyyuyyuyyt04<=#+X  . ..O$*>28etuyyyyyuuyyyyrw4<=$+X.      ",
"yyyuuyuuruyyuuyr04,&#+X.   .XO$*:28erurpyyuuyyrpyr84<=$@X..     ",
"rrrrryyyyuyurrre83:%#@O.....X+$*:289rurryyyuyyyrrr84>=$@O.......",
"0ewerryyyyyrre083<;*$#@+ooO+O#$*:<269erryyurpreew64<;-%$@+OOOXXo",
"4844wrryuyyrw064<<;&%$#@#@@##$$*;:22580rryurpre964<:;&%%$@@@@@@@",
"22<48wryurrr0622:;--**$$$%$$=%=&=;;,<580ryyyrrw52:;;;-%%%*$$%%$%",
"::<<49errrrw62<=;-;-;;==;;;;;;;*=%;-:259rrryre84:;----&&-;-=-;--",
";;<<440ew00842==----;,:<<222<:,;;---::2690w0985<;-*---><<<22222<",
"--;<<3446642<,==;--;,<4448444<<:;---=:<2566654<:=*&--;><34684664",
"--;;:,<<<<2<:=======249wwwr064<;----->;,22222::=-**===<260wwweww",
"--**===:==:===**;=;:46errrrrw64<;>-----&=:======&*;==:269errrrrr",
";-%%%%*$$$$=%%*;=::248rrrryre9542,;;--%$$$$$$$==&*:::266wrryuruy",
"--%$%#$+@+##$%*;:22560rrurrrrw9642,;-=$@@@+++@#%%;:<4490rryyuuyy",
"--%$$++oOOOO@$%;2460rrryrurpreew85<,-%@+++.+oO@$*;<469wruyyyrruu",
"--&$++X..XXO@#%;26werryypruryytrw83,-$@++. ..oO$%;269errryyyuuur",
"&&%#+o. . ..O#%,48rrryyyyyuyyytye84,-$+X.. ..XO$*;28eryyyyuuurur",
"&%%$+X     .@#%:49rryyuyyyuyuyyte94,;$+.     .O#%;28ryyyyyruuprp"
};
