/* XPM */
static char *result[] = {
/* columns rows colors chars-per-pixel */
"64 64 81 1 ",
"  c #010000",
". c #0B0001",
"X c #0C0C0C",
"o c #130103",
"O c #1C0104",
"+ c #110C0C",
"@ c #121212",
"# c #1F1214",
"$ c #230104",
"% c #2D0207",
"& c #2E0208",
"* c #280C0E",
"= c #310207",
"- c #350209",
"; c #3A020A",
": c #38080E",
"> c #232323",
", c #2E2E2E",
"< c gray21",
"1 c #3F3F3F",
"2 c #43030D",
"3 c #4A040F",
"4 c #470610",
"5 c #4E0510",
"6 c #4F0C17",
"7 c #530512",
"8 c #5C0615",
"9 c #500B17",
"0 c #5F0816",
"q c #620716",
"w c #620817",
"e c #660718",
"r c #690719",
"t c #660818",
"y c #6C091A",
"u c #740A1D",
"i c #7A0B1F",
"p c #63101E",
"a c #491820",
"s c #5B1621",
"d c #5B1F29",
"f c #7E0C20",
"g c #621825",
"h c #7C1224",
"j c #4E2229",
"k c #4C2D31",
"l c #5E373D",
"z c #63323A",
"x c #6A3B44",
"c c #434242",
"v c #4B4B4B",
"b c #5A494C",
"n c #565656",
"m c #585152",
"M c #7C5F64",
"N c gray38",
"B c gray43",
"V c gray44",
"C c #830D22",
"Z c #8B0E25",
"A c #900F26",
"S c #811124",
"D c #8E1026",
"F c #921027",
"G c #951128",
"H c #9C122B",
"J c #A2142D",
"K c #8B6E73",
"L c #808080",
"P c #8B8A8A",
"I c #918F8F",
"U c gray58",
"Y c #9F9F9F",
"T c #A99A9C",
"R c #A4A4A3",
"E c #ACADAD",
"W c #B0AAAB",
"Q c #BCBCBC",
"! c #C1B3B5",
"~ c #CAC5C6",
"^ c None",
/* pixels */
"^^^^^^^^^^^^^^^^^^;;;-;-;-;----;-;-----;;-^^^^^^^^^^^^^^^^^^^^^^",
"^^^^^^^^^^^^^^^^2224355577775777775777779575^^^^^^^^^^^^^^^^^^^^",
"^^^^^^^^^^^^^^^;5470euufufffiihfffffffuify072^^^^^^^^^^^^^^^^^^^",
"^^^^^^^^^^^^^^2278yfCZGGGGGDFFDGDDDDDDCDDSy852^^^^^^^^^^^^^^^^^^",
"^^^^^^^^^^^^2278tuCAGGHJHJHHZffyyyuutuuuyyyyyt75^^^^^^^^^^^^^^^^",
"^^^^^^^^^^;;258yfZGHHJJJJHHDu8522222:22227riSft72-^^^^^^^^^^^^^^",
"^^^^^^^^^;258quCDFHHJJJHGDfy7;%O$$$O$$$$$=3wiiut075^^^^^^^^^^^^^",
"^^^^^^^^;278yiZGHHJJJJHFSr7:%oo..........o%:70yuur773^^^^^^^^^^^",
"^^^^^^^^-28yCZGHJJJJHGZCt4&O.             oO=3wuuuw777^^^^^^^^^^",
"^^^^^^^^;28yfZGHJJJGZCr82%o.               .o$;5wuuiy82;^^^^^^^^",
"^^^^^^33258yCZGHHJJHZy7;$O.                 .o$:7tfSir3;^^^^^^^^",
"^^^^^2378wyiCAHHJHJGCy5%O.                   .O-3wCDCy2;^^^^^^^^",
"^^^^227quuiCCAAHHHJGCy5&$. .X@@@X         X@@#*:7rSZfy4;^^^^^^^^",
"^^3378qyuCCCCZAAHHJGZr4=Oo.@,cv1>X       @,cmbka9wCZft2:^^^^^^^^",
";;38ruiiCCCCCCCZZFHFfr4=OoX,BUYPv>X      >NUWTMzstSZft3-^^^^^^^^",
";;38yiCCCCuuuuiCZZGFft4=Oo@<LEQYn>X      >VR~!KxgtCZCr2;^^^^^^^^",
";;38yiCfCfe878yfCAGACr4&$o+<LEQYn>X      ,VR~!KxdpSDCr3;^^^^^^^^",
"-238euuuuy85258uCAHACy5=O++,BURPv>X      >NIETMljshSiq2;^^^^^^^^",
"^^337778772225rfCAGGCy2&O..@,cv1>X       X,cmbka60iiu82-^^^^^^^^",
"^^^^2;2;2;;;25wuCAGACy8;%o..X@@@X        .X@@#*:48yiuw2;^^^^^^^^",
"^^^^^^^^^;-;23wufZDDZfu04=O..                .O=27yuy02;^^^^^^^^",
"^^^^^^^^^^;;;3wyfCCCZZZCt7:%Oo               o$-37ryt72-^^^^^^^^",
"^^^^^^^^^^^^238eyfffCDFDfr82=O.            .o$-578ww872;^^^^^^^^",
"^^^^^^^^^^^^^^2558yfCCZCfiuw7;%o.        .o$=;7qtw7332^^^^^^^^^^",
"^^^^^^^^^^^^^^^227wrryyyiiiue72=Oo.......o%-270et8722^^^^^^^^^^^",
"^^^^^^^^^^^^^^^^^2557778eyifiy87;%$$$$O$$=258087752^^^^^^^^^^^^^",
"^^^^^^^^^^^^^^^^^^2;2;248riCCCuy85222:2225qyfyq52;^^^^^^^^^^^^^^",
"^^^^^^^^^^^^^^^^578q88wtuuCZZZZCfuiuufuiuuCCCCfw8522^^^^^^^^^^^^",
"^^^^^^^^^^^^^^2258yfffffCCCZFGHHHGGHGGGHGGHHGGZfut7222^^^^^^^^^^",
"^^^^^^^^^^^^^378wyfZZDDDZZDFHHHJJJJJJJJJJJJJJHGFCiy8752^^^^^^^^^",
"^^^^^^^^^^^^23wruCZGGHHHHHHHHJJJJJJJJJJJJJJJJJHHFZCue72-^^^^^^^^",
"^^^^^^^^^^;;;3wuCAHHHJJJJJJJJJJJJJJJJJJJJJJJJJJHHFZfr82;^^^^^^^^",
"^^^^^^^^^^-;23quCAJJJJJJJJJJJJJJJJJJJJJJJJJJJJJJJFZCy82;^^^^^^^^",
"^^^^^^^^^^-;27riZGJJJJJJJJJJJJJJJJJJJJJJJJJJJJJJHHFCu02-^^^^^^^^",
"^^^^^^^^^^-;27yZGHJJJJJJJJJJJJJJJJJJJJJJJJJJJJJJHHHZiw2;^^^^^^^^",
"^^^^^^^^^^;238iZHJJJJJJJJJJJJJJJJJJJJJJJJJJJJJJJJJJGCr72^^^^^^^^",
"^^^^^^^^^^77qyZGHJJJJJJJJJJJJJJJJJJJJJJJJJJJJJJJJJJHZfw873^^^^^^",
"^^^^^^^^;28yuCAHJJJJJJJJJJJJJJJJJJJJJJJJJJJJJJJJJJJHGZfuq72-^^^^",
"^^^^^^^^;28rCZGHJJJJJJJJJJJJJJJJJJHHHHJHJJJJJJJJJJJJHFCir72;^^^^",
"^^^^^^^2;28yCZGHJJJJJJJJJJJJJJJJJJHGDFGHJJJJJJJJJJJJGFZir72;^^^^",
"^^^^^^2237quCZAHJJJJJJJJJJJJJJJJJHHGZZDFJJJJJJJJJJJHAACCy873^^^^",
"^^^^;;38qruCCZFHJHJJJJJJJJJJJJJJJJGGZZDFHJHJJJJJJJJJHAZCiurq73;;",
"^^^^;;7wuiCCCZAHHJJJJJJJJJJJJJJJHHDDCiCDHHHJJJJJJJJHHACCiiiy832;",
"^^^^;25wuCCCCZGHJJJJJJJJJJJJJJHHGDfirwuiZFHHJJJJJJJHHACCCiiu83;-",
"^^^^-;5wuCCCCZFHHJJJJJJJHJJJJHHGDCir878riZFHHHJHJJHHGZCCiCCu83;;",
"^^^^;27qiCCCCZGHJJJJHHGGHHHHHHGADfy8327riZZAGHHHJHGACiyryuiy83;;",
"^^^^;27riCCCZZGHHJHHHAAAGHHHGAZZCiuw3358uCCCZDGHHGAZuq77qyiu83;;",
"^^^^;27qiCCCCCZAHHHGGAAAAFGFZZCfur83;=;3wyiCCZAFAZZCuq888qq832;;",
"^^^^-27qiCCCCCCZZZZZFAGGFFZZCCiy852=OO$%27wuCCCZZZCiiuyrw8332;;;",
"^^^^;278yiiCCCCCCiiiCDFFFFCCiur83-$o  .o%;38uiCfCiiiuiiu872;-;;-",
"^^^^^^3378quiCCCiuqqruCZZCCur872=Oo.   .oO=238yiuyq8777733^^^^^^",
"^^^^^^^^238yuiiyrq737wuiiiuq82-$o..      .o%-30rrq7322;2^^^^^^^^",
"^^^^^^^^^278qqq87322338w8887;%O.          .oO&25773^^^^^^^^^^^^^",
"^^^^^^^^^^3322222;:;;;;;;2;-$o.             .o%-22^^^^^^^^^^^^^^",
"^^^^^^^^^^^^;;--;-;;=%%$$$OOo                .O%-;^^^^^^^^^^^^^^",
"^^^^^^^^^^^^^^^^^^^^^^.  .. ^^^^^^^^^^        ^^^^^^^^^^^^^^^^^^",
"^^^^^^^^^^^^^^^^^^^^^^      ^^^^^^^^^^^       ^^^^^^^^^^^^^^^^^^",
"^^^^^^^^^^^^^^^^^^^^^^      ^^^^^^^^^^^^^     ^^^^^^^^^^^^^^^^^^",
"^^^^^^^^^^^^^^^^^^^^^^      ^^^^^^^^^^^^^^    ^^^^^^^^^^^^^^^^^^",
"^^^^^^^^^^^^^^^^^^^^^^^^    ^^^^^^^^^^^^^^    ^^^^^^^^^^^^^^^^^^",
"^^^^^^^^^^^^^^^^^^^^^^^^    ^^^^^^^^^^^^^^    ^^^^^^^^^^^^^^^^^^",
"^^^^^^^^^^^^^^^^^^^^^^^^    ^^^^^^^^^^^^^^    ^^^^^^^^^^^^^^^^^^",
"^^^^^^^^^^^^^^^^^^^^^^^^    ^^^^^^^^^^^^^^    ^^^^^^^^^^^^^^^^^^",
"^^^^^^^^^^^^^^^^^^^^^^^^    ^^^^^^^^^^^^^^    ^^^^^^^^^^^^^^^^^^"
};
