/* XPM */
static char *result[] = {
/* columns rows colors chars-per-pixel */
"64 64 69 1 ",
"  c #4D5C34",
". c #515D3B",
"X c #526136",
"o c #55623C",
"O c #58663F",
"+ c #5B6A3D",
"@ c #5F703E",
"# c #555E44",
"$ c #585D4E",
"% c #5E5F59",
"& c #576143",
"* c #5A6545",
"= c #5D6A43",
"- c #5C644C",
"; c #5E694B",
": c #5E6452",
"> c #5F625A",
", c #606F44",
"< c #626D4C",
"1 c #647344",
"2 c #66734B",
"3 c #68764D",
"4 c #6A794D",
"5 c #616655",
"6 c #636B54",
"7 c #62655C",
"8 c #656A5C",
"9 c #696E5D",
"0 c #667152",
"q c #6A7554",
"w c #6D7A53",
"e c #6B745B",
"r c #6F795B",
"t c #707D56",
"y c #727C5C",
"u c #656563",
"i c #686767",
"p c #676962",
"a c #696B64",
"s c #6C6C6B",
"d c #706F6F",
"f c #6D7363",
"g c #6F716A",
"h c #717665",
"j c #737B64",
"k c #72746D",
"l c #757A6B",
"z c #797E6D",
"x c #747473",
"c c #787777",
"v c #777873",
"b c #797B75",
"n c #7C7C7B",
"m c #738057",
"M c #76815D",
"N c #778062",
"B c #798265",
"V c #7B816C",
"C c #7D8174",
"Z c #7F807B",
"A c #808576",
"S c #81827D",
"D c #838382",
"F c #888787",
"G c #878885",
"H c #888986",
"J c #8B8B8B",
"K c #8F908E",
"L c #929292",
/* pixels */
"FFFFGDDDDDDGHFFFJGZV-##6VnDGDGGJKLLKJJDDDGGKKKKDxssxDDGJLLLLKJJJ",
"FFFFGDDDDDSDGFFFJGZV6#-6VnDGGDGJKKKKJDDDDDDGKKKDxNssnDGJKLKKJJGJ",
"DDGGDDSSSCSSDGFJJDnC8$:6VnDGDDDGJJJJDnnDZAADKKKZCpssxDDGJJJJGDDG",
"DDSSDSSCCVVCZGFFJJDnN$>8svnDDDDDDDGDnCCCVVCZGGGCs7puxnDDJJJGDDDD",
"nnnnnnbbjNylbZDGJJDnNp>psVnDDnnnDZnxVNNpmNNVADDv8>-8NxnDDDDnnnnD",
"nnxcccvjytrylCSDGJDnsp>pssnnnnnnnnbVN86mmmmNCZnsm$-6pCxDDnnnnnnn",
"cxccvzljr44wjbZDGJGnsuppsVsxnxxnxxVsm-m=m2MBCZxN>$*:pxxnnxxnnxCs",
"xxxxljyr444wjvCDGJDnsu>>usxxCxxxxxspmm=m2mMBCZxN-&*;msxnxcxxxxxs",
"vxkhjrw4430qjvbSGJDnp>:6psxsxxxsxxVsmm-m6NNNnDnN0&&:>Cxnxxxxxxxx",
"xxgfrw43222ehvcnDGnx8:$-8ssCxxxVxCsNNmm;NNVxDnnN6*&->Vxxnxxxxxxx",
"xggfqq22120egkvcnnxN6-#->NssssNssVsNm::mpNCxnnxi6&&->sNxxxxxdxxs",
"xsaf00023089agxxxxxN5-$->>ppp>ppppssm>mmNCssnxxC:-$$>77pxssssxss",
"ssapp88885:8pisssssp6----:$----5>pusp>ppuisxxxxi>-:$:$:musisssss",
"ssiaaaap88>>piiisssu>:$--&*&&&-:>puuppppsissxssi8:>>$&-:7uuissss",
"sssssssiuuuuiissppp>8>:::--**-$$pusuNussssssssssu>>>>$:>ppssssss",
"ddxcxxxsiuuissggppmp>m6>m66m6>8NNsNsissssxxxxxxsiuNp7>mpiNsxsxsx",
"ccnncncxsiisxCCNf02m0mmNNVVNNsVvnnnnxsssxxnnnnxnxxxsNCVxvnnvnnxn",
"DnnnDZncsiisxcCVMm,mmMNNCZnbvxnDJJJnxssxnnnnnZnZnnnnvnnnDnnnnnnn",
"DDnDDDncsipgxxCVNm,mmMNVnDDDDnDGKKJDxissxnDDDDZZZZnnZZDDDDDDnDDD",
"DDDDDDDcsspfNVVNMmm,mNVCnnDDDDDDJJJnxsisxnnnDDZbZCCZnnDDDnDDDDDD",
"DnDnDDncdsppeeMmmm20eNCCnnnnDnnDDDGnxiiixxnnZZbbBBNNxxnDnnnnnDnD",
"nnnDnDncdi750mmmm,mmfNxCnnnnnnnnDDnnxiuixxxxnnbVNMmNCxxxnnnnnnnn",
"nnnnDDScsp5:0mm2=,m6NkxCcnnnnnnDGnnnsiussxxxnxxgmm0mNNNVCCxxnnxx",
"nnnnDDncsp75002m,m0eadxxxxnnnnnnDDnnsiussxxxxxkVm8m8pppNpNNxxnxn",
"nnnnDDncsiuueeeqm,m,NsCxxxxnnnnnnGnxsiuisxxxxxxNNarffeqrNNNNNxnn",
"nnnnnDncsiuuaff0,m,mpNssxxCnnnnnDnnxsuuisssxxxxxxVNfee04mq0mssnn",
"ccccnncxiuuupeeqm+m=mppNsssxxnnnnnnxsp>>pNgNxNgxssgfe800,42mNsvv",
"dxxxccxdiu%%>880Xm==68ppssxxxxxxnxxiu>$>88peppaapsgf99600000pNxx",
"dddddddsuu%%%$;*o==+O=:8pssssxsssgpp$$&&*:6;;::8ppppp>p868pppsss",
"dssddddiu%%%:$**oXoOO&-5ppsssssupp>:$&&&O*;;*&*:ppppspppppppssss",
"dddddddiuuuu:--*OXoXO*;>pissxssu>5-;*;***;;;*-::pasxsxsVgapissss",
"xxxxxxddiisip906=oOO;6mpaNsxxxCp666;,,60000668>pNkxnnnnxxsssssxx",
"nnnnnnnnxxvnnxNN2*O;eNnxvnxnsVCNm804mm4NMNNNsNknnZGGLKGnxxsxxnnn",
"GDnnnnnnnnnDGGnC0;*6NnDGDnnnxCVVNe44mMmNBCnvnnDDGGKKLLKDnsssnnDD",
"DDDDDnnnnDDGKGDnp;$6CnGGDnnvnvVBMmqmmMMNCZZZnDDDKKLLLLLGxssxxDDD",
"nDDDnDDnDDDGKKGvN6>>CnGGDnvvbvNMmq44mNNNCnDDDDDDKKKLLLLJnssxnnnD",
"nnnnnnnnnDZDDDnnpp>psnnnnnxxNgpq4404efNVbbnnnnZDDGGKKJGnxssxxnnn",
"xxxnxxnnnnnnDDDxspuNxxnnxxxxNmq0440efNssvxnnnnZZnnDGGGnnssssxnnn",
"xsxxsxxnnvnDDDnxssusxxnxxxCam022209fgpVsxxxxxnxvvvnDDDnnssssxxnn",
"NNpNCxxxxnnnDDDnssipxxxxxsNN0m220eaNgVxxxxxNgVgVvnnnDDnnssissxnn",
"NpmpNsxxvnnDDDDnxxssxxxxskksNq42mfNsxxxxxxsVNrrNxcnnDDncssiisxnn",
"mmqqpNxxvnbnnDDnxssssxxssVVNmq40eNVxxxxxxxsprwrrxxnnnDncsiiidxxn",
";,24efNsNsxxnnnxxsiiNsssNppm6214pNsssssssgggeqeNsxnnnnncsiiissxx",
"*;,008>uppNNvxxxiiiuup>u8p60*O@2pssssssissa98009ssxcnncxsiuussss",
":;;***--;66psxssspp>>:;-;;;-OOO*:8puuipuuupu>pppssdxdddsiuuuiiuu",
"6::-&&&&&*;8pssisNpp>$*O*OOOoOO$:>usuuuuu>>u>ppsssssdsdsiuuuuuuu",
"p>>8:&****-5psVssspp;,;****-**$:8ppiiiiu>>uupssssdxxxxdsiiiiuuuu",
"psgpp886;-:>NsxxxxsN0022<06666ppgNsxxsssiuuissssxxxxxxxddsssiiiu",
"xxxxxxNgp>ppVxnnnbvVmmmmmpNNNNsxxnnnDnnnssssxnnxnnnnnvnvnvnbvvxx",
"xnnnnnxxNpssxxDGDAACNNNNCCnxnnnnnDDDJJDnxsssxnnDDDnnnZnnnnZZnnbb",
"nnDDDnnnssxxnnDDDnnbVBBVnnnnnnDDDDJJKKJDvxsxnZDDDDDDZZnZDZZZZZZZ",
"nnnDGGnxssxxxnDnCCCkVVVCCnnnnnDDDDDDKKJGxxsxnZZDDDDnCCCvbvACCZZZ",
"nnnDGDnnssssxnnCVNNNNVbnCZnnnvnnnnDDJJDnxssxxnZDnnZbVNNmfNNVvbbn",
"nnnnGnnnsspsxvbvNmpNNVvxCnvnxxnnnnnnDDDnxsssxxnnnnbxf9444qwNVxxx",
"nnnnnnnnspupxvvNeqqqpNsxvvvnxxxxnnnDDDnnssssxxxxxxxxq04444wNxxxx",
"nnnDGDDxpp>uNsxNmm208sNNxxxxnxxnnnnnDDnnxxssxxxxxxss42,44qrNxvvx",
"xnnnDDnsp::5asvNmm,14mNNxxxxxnxxnnnnDDnnxxssxxxxNNm44444mNfVxvxx",
"vnnnDnnN8-*:pNNNmm,@@00NsxxxxxxxnnnnnDnnxxisxxsVa002,,24rfVxxvvv",
"xnxnxnsN-&&*6paf44@@@,24psssxxxxxxxnnnnnxsssxxipp02,,,20fNxxxxxv",
"sxsxsNN6*&&&;6662@@@O,O,6>issxxsxxxxnxnxsisssxsp6;,OO@,00fggxxxx",
"spspp5--&o .&&**@o@+O&OO&-:>uiisssssxxxssiissNp8-OOo.&&*>uuupiii",
"puu>-$&     &oo&ooXooo&oo&&-%uuisssssssssiiiipp5*&oo ..&$>>uuuuu",
"u>>$$.       o  XXXXo &  ..#%%uuiiiissiiiiussp8:*o  ...&->uuuuuu",
"uu>$#.            XXXo    .#%%uuuiuiiiiiususpp5:&oo .#.&-:>uu>uu"
};
